# xmcd
#
# Track frame offsets:
#	150
#	16068
#	32179
#	46629
#	64975
#	83146
#	97125
#	112652
#
# Disc length: 1748 seconds
#
# Revision: 1
# Processed by: cddbd v1.5.2PL0 Copyright (c) Steve Scherf et al.
# Submitted via: audiograbber 1.80
#
DISCID=5806d208
DTITLE=diverse - diverse
DYEAR=1900
DGENRE=
TTITLE0=ANASTACIA - I CAN FEEL YOU
TTITLE1=BRINCK - I DON'T WANNA LOVE HER
TTITLE2=DANIEL POWTER - NEXT PLANE HOME
TTITLE3=LADY GAGA - JUST DANCE
TTITLE4=RIHANNA  - DISTURBIA
TTITLE5=SHAGGY feat TRIFLIX - FEEL THE RUSH
TTITLE6=SYS BJERRE - KEGLE
TTITLE7=THE PUSSYCAT DOLLS - WHEN I GROW UP
EXTD=
EXTT0=
EXTT1=
EXTT2=
EXTT3=
EXTT4=
EXTT5=
EXTT6=
EXTT7=
PLAYORDER=
